<mxfile host="app.diagrams.net" modified="2024-01-09T09:00:08.941Z" agent="Mozilla/5.0 (X11; Linux x86_64) AppleWebKit/537.36 (KHTML, like Gecko) Chrome/120.0.0.0 Safari/537.36 Edg/120.0.0.0" etag="zqwZtUdtHsBV9DuKsrlm" version="22.1.17" type="github">
  <diagram name="第 1 页" id="xsVs6HvNNFVfezSwiEtw">
    <mxGraphModel dx="1082" dy="678" grid="1" gridSize="10" guides="1" tooltips="1" connect="1" arrows="1" fold="1" page="1" pageScale="1" pageWidth="827" pageHeight="1169" math="0" shadow="0">
      <root>
        <mxCell id="0" />
        <mxCell id="1" parent="0" />
        <mxCell id="KpRJhCa2GSilrdelGaOa-1" value="zxh" style="rounded=1;whiteSpace=wrap;html=1;" vertex="1" parent="1">
          <mxGeometry x="100" y="300" width="90" height="40" as="geometry" />
        </mxCell>
        <mxCell id="KpRJhCa2GSilrdelGaOa-3" value="zoom" style="rounded=1;whiteSpace=wrap;html=1;" vertex="1" parent="1">
          <mxGeometry x="230" y="160" width="90" height="40" as="geometry" />
        </mxCell>
        <mxCell id="KpRJhCa2GSilrdelGaOa-4" value="postman" style="rounded=1;whiteSpace=wrap;html=1;" vertex="1" parent="1">
          <mxGeometry x="230" y="220" width="90" height="40" as="geometry" />
        </mxCell>
        <mxCell id="KpRJhCa2GSilrdelGaOa-5" value="typora" style="rounded=1;whiteSpace=wrap;html=1;" vertex="1" parent="1">
          <mxGeometry x="230" y="280" width="90" height="40" as="geometry" />
        </mxCell>
        <mxCell id="KpRJhCa2GSilrdelGaOa-6" value="test" style="rounded=1;whiteSpace=wrap;html=1;" vertex="1" parent="1">
          <mxGeometry x="230" y="340" width="90" height="40" as="geometry" />
        </mxCell>
        <mxCell id="KpRJhCa2GSilrdelGaOa-7" value="system/test2" style="rounded=1;whiteSpace=wrap;html=1;" vertex="1" parent="1">
          <mxGeometry x="230" y="400" width="90" height="40" as="geometry" />
        </mxCell>
      </root>
    </mxGraphModel>
  </diagram>
</mxfile>
